<?xml version="1.0" standalone="no"?><!DOCTYPE svg PUBLIC "-//W3C//DTD SVG 1.1//EN" "http://www.w3.org/Graphics/SVG/1.1/DTD/svg11.dtd"><svg t="1602730408301" class="icon" viewBox="0 0 1024 1024" version="1.1" xmlns="http://www.w3.org/2000/svg" p-id="2609" xmlns:xlink="http://www.w3.org/1999/xlink" width="128" height="128"><defs><style type="text/css"></style></defs><path d="M617.984 504.768c54.272-35.52 90.602667-96.106667 90.602667-165.077333 0-108.885333-89.130667-197.056-199.082667-197.056-109.994667 0-199.082667 88.170667-199.082667 197.056 0 68.949333 36.352 129.557333 90.581334 165.077333-110.997333 35.925333-190.122667 170.218667-190.122667 295.402667a24.533333 24.533333 0 0 0 24.896 24.661333 24.533333 24.533333 0 0 0 24.874667-24.661333c0-136.021333 111.488-263.424 248.853333-263.424 137.344 0 248.832 127.402667 248.832 263.424 0 13.781333 10.922667 24.661333 24.874667 24.661333s24.874667-10.88 24.874666-24.661333c0-125.184-79.125333-259.477333-190.101333-295.402667z m-108.48-17.258667c-82.133333 0-149.312-66.517333-149.312-147.818666 0-81.322667 67.178667-147.818667 149.312-147.818667s149.290667 66.496 149.290667 147.818667c0 81.28-67.178667 147.818667-149.290667 147.818666z m301.12 20.202667c57.216-35.008 96.042667-96.576 96.042667-168.021333 0-108.885333-89.088-197.056-199.082667-197.056a24.533333 24.533333 0 0 0-24.874667 24.64 24.533333 24.533333 0 0 0 24.874667 24.618666c82.133333 0 149.290667 66.496 149.290667 147.818667 0 54.677333-29.824 101.994667-74.624 127.616-43.797333 26.602667-55.744 64.021333 0 84.202667 86.634667 30.570667 149.290667 152.554667 149.290666 249.130666a24.533333 24.533333 0 0 0 24.874667 24.64A24.533333 24.533333 0 0 0 981.333333 800.661333c0-113.834667-70.698667-252.586667-170.709333-292.949333zM42.666667 800.64a24.533333 24.533333 0 0 0 24.896 24.64 24.533333 24.533333 0 0 0 24.874666-24.64c0-96.554667 62.677333-218.56 149.312-249.130667 55.744-20.181333 43.797333-57.621333 0-84.202666-44.8-25.621333-74.666667-72.938667-74.666666-127.616 0-81.322667 67.178667-147.818667 149.312-147.818667 13.930667 0 24.874667-10.837333 24.874666-24.618667a24.533333 24.533333 0 0 0-24.874666-24.64c-109.994667 0-199.082667 88.170667-199.082667 197.056 0 71.445333 38.826667 133.013333 96.042667 168.021334C113.344 548.074667 42.666667 686.826667 42.666667 800.64z" p-id="2610" fill="#bfcbd9"></path></svg>