<?xml version="1.0" standalone="no"?><!DOCTYPE svg PUBLIC "-//W3C//DTD SVG 1.1//EN" "http://www.w3.org/Graphics/SVG/1.1/DTD/svg11.dtd"><svg t="1600952760731" class="icon" viewBox="0 0 1024 1024" version="1.1" xmlns="http://www.w3.org/2000/svg" p-id="6158" xmlns:xlink="http://www.w3.org/1999/xlink" width="128" height="128"><defs><style type="text/css"></style></defs><path d="M488.35 74c0.268 0 0.537 0.004 0.804 0.01l0.346-0.001c242.73 0 439.5 196.769 439.5 439.495C929 756.231 732.23 953 489.5 953c-119.626 0-228.089-47.793-307.337-125.326l0.008-0.007a30.012 30.012 0 0 1-5.233-4.182 29.998 29.998 0 0 1-4.32-5.455C96.678 739.045 50 631.726 50 513.504 50 271.598 245.443 75.34 487.04 74.016l0.004 0.012c0.433-0.019 0.868-0.028 1.305-0.028z m29.917 60.909l-0.004 51.286c0 16.52-13.393 29.913-29.914 29.913-16.284 0-29.53-13.013-29.905-29.207l-0.008-0.706v-51.107c-82.988 6.72-158.435 40.127-217.747 91.628l36.735 36.735c11.681 11.682 11.681 30.622 0 42.304-11.516 11.515-30.083 11.68-41.8 0.494l-0.505-0.494-36.395-36.394c-49.415 58.79-81.328 132.782-87.714 213.95l53.764 0.002c16.52 0 29.914 13.393 29.914 29.914 0 16.285-13.013 29.53-29.208 29.905l-0.706 0.008-53.807 0.003c6.318 81.822 38.573 156.376 88.555 215.452l35.597-35.596 0.505-0.493c11.717-11.186 30.284-11.021 41.8 0.494 11.681 11.682 11.681 30.622 0 42.304l-35.8 35.798c59.17 51.042 134.26 84.134 216.812 90.819V840.25c0-16.52 13.393-29.913 29.913-29.913 16.285 0 29.53 13.012 29.906 29.207l0.008 0.706 0.004 51.85c81.728-6.123 156.244-38.119 215.38-87.822l-38.974-38.974c-11.682-11.682-11.682-30.622 0-42.304 11.516-11.515 30.083-11.68 41.8-0.494l0.504 0.493 39.314 39.314c51.797-59.651 85.29-135.622 91.742-219.17l-51.506-0.003c-16.52 0-29.913-13.392-29.913-29.913 0-16.285 13.012-29.53 29.207-29.906l0.706-0.008 51.463-0.001c-6.386-81.169-38.299-155.16-87.714-213.95l-36.395 36.393-0.505 0.494c-11.717 11.186-30.284 11.02-41.8-0.494-11.681-11.682-11.681-30.622 0-42.304l36.735-36.735c-59.86-51.976-136.152-85.522-220.044-91.807zM350.796 341.755l0.574 0.533 98.856 94.257c11.23-5.248 23.76-8.178 36.973-8.178 48.292 0 87.44 39.147 87.44 87.438 0 48.292-39.148 87.44-87.44 87.44-48.292 0-87.44-39.148-87.44-87.44 0-13.198 2.924-25.714 8.16-36.934l-97.834-93.284c-11.957-11.4-12.407-30.335-1.007-42.292 11.22-11.766 29.736-12.39 41.718-1.54z m136.403 146.438c-15.25 0-27.613 12.363-27.613 27.612 0 15.25 12.363 27.613 27.613 27.613s27.613-12.363 27.613-27.613-12.363-27.612-27.613-27.612z" fill="#bfcbd9" p-id="6159"></path></svg>