<?xml version="1.0" standalone="no"?><!DOCTYPE svg PUBLIC "-//W3C//DTD SVG 1.1//EN" "http://www.w3.org/Graphics/SVG/1.1/DTD/svg11.dtd"><svg t="1600952733608" class="icon" viewBox="0 0 1024 1024" version="1.1" xmlns="http://www.w3.org/2000/svg" p-id="5327" xmlns:xlink="http://www.w3.org/1999/xlink" width="128" height="128"><defs><style type="text/css"></style></defs><path d="M693.570603 60.50681h-0.100343C693.47026 27.092602 666.879373 0 634.067222 0h-500.711416c-32.912494 0-59.503381 27.092602-59.503381 60.50681v696.982264c0 33.414209 26.69123 60.50681 59.503381 60.50681h69.136306V197.976678c0-38.331014 30.504263-69.437335 68.233219-69.437335h422.845272V60.50681z" fill="#bfcbd9" p-id="5328"></path><path d="M888.13562 210.820578H365.750122c-34.317295 0-62.011955 28.296717-62.011954 63.115728v686.947966c0 34.81901 27.795002 63.115728 62.011954 63.115728h522.385498c34.317295 0 62.011955-28.296717 62.011955-63.115728V273.936306c0-34.81901-27.795002-63.115728-62.011955-63.115728zM470.809211 792.207741c0 25.085742-20.369623 45.555708-45.555708 45.555708-25.085742 0-45.555708-20.369623-45.555708-45.555708 0-25.085742 20.369623-45.555708 45.555708-45.555708 25.085742 0.100343 45.555708 20.469966 45.555708 45.555708z m0-174.797452c0 25.085742-20.369623 45.555708-45.555708 45.555708-25.085742 0-45.555708-20.369623-45.555708-45.555708 0-25.085742 20.369623-45.555708 45.555708-45.555708 25.085742 0 45.555708 20.469966 45.555708 45.555708z m0-174.797452c0 25.085742-20.369623 45.555708-45.555708 45.555708-25.085742 0-45.555708-20.369623-45.555708-45.555708 0-25.085742 20.369623-45.555708 45.555708-45.555708 25.085742 0 45.555708 20.369623 45.555708 45.555708z m403.378736 349.594904c0 25.085742-20.369623 45.555708-45.555708 45.555708H586.504655c-25.085742 0-45.555708-20.369623-45.555708-45.555708 0-25.085742 20.369623-45.555708 45.555708-45.555708h242.127584c25.085742 0.100343 45.555708 20.469966 45.555708 45.555708z m0-174.797452c0 25.085742-20.369623 45.555708-45.555708 45.555708H586.504655c-25.085742 0-45.555708-20.369623-45.555708-45.555708 0-25.085742 20.369623-45.555708 45.555708-45.555708h242.127584c25.085742 0 45.555708 20.469966 45.555708 45.555708z m0-174.797452c0 25.085742-20.369623 45.555708-45.555708 45.555708H586.504655c-25.085742 0-45.555708-20.369623-45.555708-45.555708 0-25.085742 20.369623-45.555708 45.555708-45.555708h242.127584c25.085742 0 45.555708 20.369623 45.555708 45.555708z" fill="#bfcbd9" p-id="5329"></path></svg>