<?xml version="1.0" standalone="no"?><!DOCTYPE svg PUBLIC "-//W3C//DTD SVG 1.1//EN" "http://www.w3.org/Graphics/SVG/1.1/DTD/svg11.dtd"><svg t="1600951247278" class="icon" viewBox="0 0 1024 1024" version="1.1" xmlns="http://www.w3.org/2000/svg" p-id="1305" xmlns:xlink="http://www.w3.org/1999/xlink" width="128" height="128"><defs><style type="text/css"></style></defs><path d="M713.771 905.572H615c-17.673 0-32-14.327-32-32s14.327-32 32-32h98.771c67.162 0 121.802-54.64 121.802-121.802V281.792c0-67.162-54.64-121.802-121.802-121.802H281.792c-67.162 0-121.802 54.64-121.802 121.802v17.207c0 17.673-14.327 32-32 32s-32-14.327-32-32v-17.207c0-102.452 83.35-185.802 185.802-185.802h431.979c102.451 0 185.802 83.35 185.802 185.802v437.979c-0.001 102.451-83.351 185.801-185.802 185.801z" fill="" p-id="1306"></path><path d="M287.101 395.493m-85.496 0a85.496 85.496 0 1 0 170.992 0 85.496 85.496 0 1 0-170.992 0Z" fill="" p-id="1307"></path><path d="M409.345 900.571H155.358c-27.911 0-50.748-22.836-50.748-50.748V607.836c0-58.435 47.81-106.245 106.245-106.245h7.249L283 639.965l73.348-138.374c1.422 0 2.838 0.029 4.246 0.086 55.111 2.247 99.498 48.021 99.498 103.658v244.488c0.001 27.912-22.836 50.748-50.747 50.748z" fill="" p-id="1308"></path><path d="M434.009 851c-6.891 0-13.75-2.832-18.69-8.387-9.175-10.317-8.25-26.119 2.067-35.295l253-225c10.315-9.175 26.118-8.249 35.295 2.068 9.175 10.317 8.249 26.119-2.068 35.295l-253 225A24.905 24.905 0 0 1 434.009 851zM747 304.999H477c-13.807 0-25-11.193-25-25s11.193-25 25-25h270c13.807 0 25 11.193 25 25s-11.193 25-25 25zM748 431H548c-13.807 0-25-11.193-25-25s11.193-25 25-25h200c13.807 0 25 11.193 25 25s-11.193 25-25 25z" fill="" p-id="1309"></path></svg>