<?xml version="1.0" standalone="no"?><!DOCTYPE svg PUBLIC "-//W3C//DTD SVG 1.1//EN" "http://www.w3.org/Graphics/SVG/1.1/DTD/svg11.dtd"><svg t="1600952269206" class="icon" viewBox="0 0 1024 1024" version="1.1" xmlns="http://www.w3.org/2000/svg" p-id="3347" xmlns:xlink="http://www.w3.org/1999/xlink" width="128" height="128"><defs><style type="text/css"></style></defs><path d="M372.363636 0H93.090909C41.890909 0 0 41.890909 0 93.090909v279.272727c0 51.2 41.890909 93.090909 93.090909 93.090909h279.272727c51.2 0 93.090909-41.890909 93.090909-93.090909V93.090909c0-51.2-41.890909-93.090909-93.090909-93.090909z m0 558.545455H93.090909c-51.2 0-93.090909 41.890909-93.090909 93.090909v279.272727c0 51.2 41.890909 93.090909 93.090909 93.090909h279.272727c51.2 0 93.090909-41.890909 93.090909-93.090909V651.636364c0-51.2-41.890909-93.090909-93.090909-93.090909z m209.454546-418.909091h418.909091c13.963636 0 23.272727-9.309091 23.272727-23.272728s-9.309091-23.272727-23.272727-23.272727H581.818182c-13.963636 0-23.272727 9.309091-23.272727 23.272727s9.309091 23.272727 23.272727 23.272728z m418.909091 186.181818H581.818182c-13.963636 0-23.272727 9.309091-23.272727 23.272727s9.309091 23.272727 23.272727 23.272727h418.909091c13.963636 0 23.272727-9.309091 23.272727-23.272727s-9.309091-23.272727-23.272727-23.272727z m0 325.818182H581.818182c-13.963636 0-23.272727 9.309091-23.272727 23.272727s9.309091 23.272727 23.272727 23.272727h418.909091c13.963636 0 23.272727-9.309091 23.272727-23.272727s-9.309091-23.272727-23.272727-23.272727z m0 232.727272H581.818182c-13.963636 0-23.272727 9.309091-23.272727 23.272728s9.309091 23.272727 23.272727 23.272727h418.909091c13.963636 0 23.272727-9.309091 23.272727-23.272727s-9.309091-23.272727-23.272727-23.272728z" fill="#bfcbd9" p-id="3348"></path></svg>