<?xml version="1.0" standalone="no"?><!DOCTYPE svg PUBLIC "-//W3C//DTD SVG 1.1//EN" "http://www.w3.org/Graphics/SVG/1.1/DTD/svg11.dtd"><svg t="1600950556476" class="icon" viewBox="0 0 1024 1024" version="1.1" xmlns="http://www.w3.org/2000/svg" p-id="1063" xmlns:xlink="http://www.w3.org/1999/xlink" width="128" height="128"><defs><style type="text/css"></style></defs><path d="M939.802948 470.830409v-449.122807c0-8.233918-6.736842-14.97076-14.97076-14.97076H251.896516c-8.233918 0-14.97076 6.736842-14.970761 14.97076v132.491228c0 3.74269-2.994152 7.48538-7.48538 7.485381H93.954995c-8.233918 0-14.97076 6.736842-14.97076 14.97076v294.175438c0 3.74269-2.994152 7.48538-7.48538 7.48538H16.85558c-8.233918 0-14.97076 6.736842-14.97076 14.970761v514.994152c0 8.233918 6.736842 14.97076 14.97076 14.97076h985.076023c8.233918 0 14.97076-6.736842 14.970761-14.97076V493.28655c0-8.233918-6.736842-14.97076-14.970761-14.970761h-54.643274c-4.491228 0-7.48538-2.994152-7.485381-7.48538zM323.007627 85.333333h531.461988c3.74269 0 7.48538 2.994152 7.48538 7.48538v376.51462c0 3.74269-2.994152 7.48538-7.48538 7.48538h-531.461988c-3.74269 0-7.48538-2.994152-7.48538-7.48538V92.818713c0-4.491228 2.994152-7.48538 7.48538-7.48538zM165.066106 239.532164h59.883041c3.74269 0 7.48538 2.994152 7.48538 7.48538v221.567251c0 3.74269-2.994152 7.48538-7.48538 7.48538h-59.883041c-3.74269 0-7.48538-2.994152-7.48538-7.48538V247.017544c0-3.74269 3.74269-7.48538 7.48538-7.48538z m766.502924 705.122807H87.966691c-3.74269 0-7.48538-2.994152-7.48538-7.48538V563.649123c0-3.74269 2.994152-7.48538 7.48538-7.48538h843.602339c3.74269 0 7.48538 2.994152 7.48538 7.48538v373.520468c-0.748538 3.74269-3.74269 7.48538-7.48538 7.48538z m0 0" fill="#bfcbd9" p-id="1064"></path><path d="M280.34096 788.959064h455.111111c3.74269 0 7.48538 2.994152 7.48538 7.48538v63.625731c0 3.74269 2.994152 7.48538 7.485381 7.485381h63.625731c3.74269 0 7.48538-2.994152 7.48538-7.485381V640c0-3.74269-2.994152-7.48538-7.48538-7.48538h-63.625731c-3.74269 0-7.48538 2.994152-7.485381 7.48538v65.122807c0 3.74269-2.994152 7.48538-7.48538 7.48538H280.34096c-3.74269 0-7.48538-2.994152-7.48538-7.48538v-65.122807c0-3.74269-2.994152-7.48538-7.48538-7.48538h-63.625731c-3.74269 0-7.48538 2.994152-7.48538 7.48538v220.070175c0 3.74269 2.994152 7.48538 7.48538 7.485381h63.625731c3.74269 0 7.48538-2.994152 7.48538-7.485381v-63.625731c0-4.491228 2.994152-7.48538 7.48538-7.48538z m182.643275-625.777777H399.358504c-3.74269 0-7.48538 2.994152-7.48538 7.48538v63.625731c0 3.74269 2.994152 7.48538 7.48538 7.48538h63.625731c3.74269 0 7.48538-2.994152 7.48538-7.48538v-63.625731c0-3.74269-2.994152-7.48538-7.48538-7.48538z m-62.877193 234.292397h63.625731c3.74269 0 7.48538-2.994152 7.48538-7.48538v-63.625731c0-3.74269-2.994152-7.48538-7.48538-7.48538h-63.625731c-3.74269 0-7.48538 2.994152-7.48538 7.48538v63.625731c0 4.491228 2.994152 7.48538 7.48538 7.48538zM556.551486 241.777778h220.070176c3.74269 0 7.48538-2.994152 7.48538-7.48538v-63.625731c0-3.74269-2.994152-7.48538-7.48538-7.48538H556.551486c-3.74269 0-7.48538 2.994152-7.48538 7.48538v63.625731c0 3.74269 2.994152 7.48538 7.48538 7.48538z m0 155.695906h220.070176c3.74269 0 7.48538-2.994152 7.48538-7.48538v-63.625731c0-3.74269-2.994152-7.48538-7.48538-7.48538H556.551486c-3.74269 0-7.48538 2.994152-7.48538 7.48538v63.625731c0 4.491228 2.994152 7.48538 7.48538 7.48538z m0 0" fill="#bfcbd9" p-id="1065"></path></svg>